<svg xmlns="http://www.w3.org/2000/svg" viewBox="0 0 256 256" width="256" height="256">
  <defs>
    <linearGradient id="bgGrad" x1="0%" y1="0%" x2="100%" y2="100%">
      <stop offset="0%" style="stop-color:#111111"/>
      <stop offset="100%" style="stop-color:#050505"/>
    </linearGradient>
    <clipPath id="bg"><rect width="256" height="256" rx="28" ry="28"/></clipPath>
  </defs>

  <!-- Background -->
  <rect width="256" height="256" rx="28" ry="28" fill="url(#bgGrad)"/>

  <!-- Red bottom band -->
  <rect x="0" y="188" width="256" height="68" fill="#E10600" clip-path="url(#bg)"/>

  <!-- ======= F letter (italic, bold) ======= -->
  <!-- F vertical stem: lean ~10deg to right -->
  <!-- top-left, top-right, bottom-right, bottom-left -->
  <polygon points="22,42  50,42  38,182  10,182" fill="#FFFFFF"/>
  <!-- F top horizontal bar -->
  <polygon points="44,42  126,42  122,66  40,66" fill="#FFFFFF"/>
  <!-- F middle horizontal bar -->
  <polygon points="34,110  108,110  104,132  30,132" fill="#FFFFFF"/>

  <!-- ======= Separator flash (red arrow) ======= -->
  <polygon points="126,42  144,42  106,182  88,182" fill="#E10600"/>

  <!-- ======= 1 letter ======= -->
  <!-- 1 top-left serif / lead stroke -->
  <polygon points="128,42  160,42  150,70  118,70" fill="#FFFFFF"/>
  <!-- 1 vertical stem -->
  <polygon points="148,58  174,58  162,182  136,182" fill="#FFFFFF"/>
  <!-- 1 bottom base serif -->
  <polygon points="122,162  196,162  192,182  118,182" fill="#FFFFFF"/>

  <!-- FORMULA ONE label on red band -->
  <text x="128" y="230" font-family="'Arial Narrow', Arial, sans-serif"
        font-size="11" font-weight="700" fill="#ffffff"
        text-anchor="middle" letter-spacing="8">FORMULA ONE</text>

  <!-- Border -->
  <rect width="256" height="256" rx="28" ry="28" fill="none" stroke="#E10600" stroke-width="2" opacity="0.5"/>
</svg>
